# xmcd
#
# Track frame offsets:
#	150
#	30761
#	56846
#	71625
#	84313
#	98511
#	110435
#	130962
#	153844
#	169936
#	194435
#	215763
#	240463
#	253997
#	276296
#
# Disc length: 3879 seconds
#
# Revision: 1
# Processed by: cddbd v1.5.2PL0 Copyright (c) Steve Scherf et al.
# Submitted via: audiograbber 1.83.01
#
DISCID=d00f250f
DTITLE=Various Artist - Buena Vista Festival CD2
DYEAR=2002
DGENRE=Latin
TTITLE0=Los Van Van Salsa Formell - Por Encima Del Nivel
TTITLE1=Irakere - Baila mi Ritmo
TTITLE2=Orguesta Aregon - Charlas del Momento
TTITLE3=Celina Gonzales - Oyé mi Le-Lo-Lei
TTITLE4=Benny Moré - En el Tiempo de la Colina
TTITLE5=Celeste Mendoza - Estás Acabando
TTITLE6=Malena Burke y NG. La Banda - Chencha la Gamba
TTITLE7=Conjunto Rumbavana - Lo que te trae Rumbavana
TTITLE8=Tito Gomez Con Jorrin - Que es lo que hace Usted
TTITLE9=Reve Y Su Charangon - Yo no quiero Seas Celosa
TTITLE10=NG. La Banda - Los Sitios entero
TTITLE11=Conjunto roberto Faz - Si me comprendieras
TTITLE12=Malena Burke y NG. La Banda - Bruja Mangua
TTITLE13=Los Van Van - Canta la Ceiba, Baila la Palma Real
TTITLE14=Celina Gonzales - Camina y Ven
EXTD=YEAR: 1999
EXTT0=
EXTT1=
EXTT2=
EXTT3=
EXTT4=
EXTT5=
EXTT6=
EXTT7=
EXTT8=
EXTT9=
EXTT10=
EXTT11=
EXTT12=
EXTT13=
EXTT14=
PLAYORDER=
